<!-- sample rectangle -->
<svg width="28" height="28" viewBox="0 0 28 28" fill="none" xmlns="http://www.w3.org/2000/svg">
<path d="M5.8335 18.6667V7C5.8335 5.76232 6.32516 4.57534 7.20033 3.70017C8.0755 2.825 9.26249 2.33333 10.5002 2.33333H17.5002C18.7378 2.33333 19.9248 2.825 20.8 3.70017C21.6752 4.57534 22.1668 5.76232 22.1668 7V18.6667H5.8335ZM21.0002 24.5V21C21.0002 20.6906 20.8772 20.3938 20.6585 20.175C20.4397 19.9562 20.1429 19.8333 19.8335 19.8333C19.5241 19.8333 19.2273 19.9562 19.0085 20.175C18.7897 20.3938 18.6668 20.6906 18.6668 21V24.5C18.6668 24.8094 18.7897 25.1062 19.0085 25.325C19.2273 25.5437 19.5241 25.6667 19.8335 25.6667C20.1429 25.6667 20.4397 25.5437 20.6585 25.325C20.8772 25.1062 21.0002 24.8094 21.0002 24.5ZM9.3335 24.5V21C9.3335 20.6906 9.21058 20.3938 8.99179 20.175C8.77299 19.9562 8.47625 19.8333 8.16683 19.8333C7.85741 19.8333 7.56066 19.9562 7.34187 20.175C7.12308 20.3938 7.00016 20.6906 7.00016 21V24.5C7.00016 24.8094 7.12308 25.1062 7.34187 25.325C7.56066 25.5437 7.85741 25.6667 8.16683 25.6667C8.47625 25.6667 8.77299 25.5437 8.99179 25.325C9.21058 25.1062 9.3335 24.8094 9.3335 24.5Z" fill="#CACACA"/>
<path d="M21.9799 10.5C21.0631 10.5852 20.2123 11.0136 19.5979 11.6993C18.9835 12.3851 18.6509 13.2777 18.6666 14.1983V17.5H9.33323V14.1983C9.34895 13.2777 9.0163 12.3851 8.4019 11.6993C7.7875 11.0136 6.93671 10.5852 6.0199 10.5C5.18202 10.4591 4.35732 10.7204 3.69597 11.2365C3.03462 11.7526 2.58062 12.489 2.41664 13.3117C2.25267 14.1344 2.38963 14.9886 2.80259 15.7188C3.21555 16.449 3.87703 17.0066 4.66657 17.29V21C4.66657 21.3094 4.78948 21.6062 5.00827 21.825C5.22707 22.0438 5.52381 22.1667 5.83323 22.1667H22.1666C22.476 22.1667 22.7727 22.0438 22.9915 21.825C23.2103 21.6062 23.3332 21.3094 23.3332 21V17.29C24.1228 17.0066 24.7843 16.449 25.1972 15.7188C25.6102 14.9886 25.7471 14.1344 25.5832 13.3117C25.4192 12.489 24.9652 11.7526 24.3038 11.2365C23.6425 10.7204 22.8178 10.4591 21.9799 10.5Z" fill="#9B9B9B"/>
</svg>

