<!-- sample rectangle -->
<svg width="38" height="34" viewBox="0 0 38 34" fill="none" xmlns="http://www.w3.org/2000/svg">
<rect width="38" height="26" transform="matrix(-1 0 0 1 38 4)" fill="#800080"/>
<g clip-path="url(#clip0_14_1275)">
<path fill-rule="evenodd" clip-rule="evenodd" d="M30.7413 14.6253C31.6045 15.082 32.3891 15.7757 32.681 16.6507C32.7495 16.856 32.7495 17.0779 32.6812 17.2832C32.3897 18.1584 31.6055 18.8525 30.7425 19.3097C29.8457 19.7848 28.7126 20.0893 27.4906 20.0896L23.0881 20.0908L18.8594 26.702L18.0169 26.1632L18.8491 26.7177C18.313 27.5224 17.4733 27.7625 16.6738 27.6485C16.5869 27.6361 16.502 27.6123 16.4213 27.5777L15.9263 27.3657C15.1031 27.0132 14.4757 26.2045 14.6226 25.1741C14.6254 25.1544 14.6288 25.1347 14.6328 25.1152L15.7029 19.8764L13.677 19.4717L11.9345 21.2151C11.747 21.4026 11.4927 21.5081 11.2275 21.5081L9.81328 21.5085C9.51369 21.5086 9.22984 21.3743 9.03984 21.1427C8.84984 20.9111 8.77371 20.6064 8.83239 20.3127L9.49939 16.9731L8.83063 13.6338C8.7718 13.3401 8.84777 13.0354 9.03765 12.8037C9.22753 12.5719 9.5113 12.4375 9.81089 12.4374L11.2251 12.4371C11.4903 12.437 11.7447 12.5423 11.9323 12.7298L13.6756 14.4722L15.7014 14.0665L14.6285 8.82824C14.6245 8.80869 14.6211 8.78903 14.6183 8.76927C14.4708 7.73901 15.0978 6.92997 15.9208 6.57699C15.9698 6.55597 16.0205 6.5389 16.0722 6.52596L16.6064 6.39226C17.473 6.12295 18.3363 6.46231 18.844 7.22351L18.8542 7.23916L23.0865 13.8482L27.4889 13.847C28.711 13.8467 29.8442 14.1507 30.7413 14.6253ZM17.1811 25.6142L21.6982 18.5521C21.8819 18.2649 22.1993 18.091 22.5403 18.0909L27.4901 18.0896C28.3893 18.0894 29.2007 17.8631 29.8063 17.5423C30.1757 17.3466 30.4238 17.1416 30.5795 16.9675C30.4237 16.7935 30.1755 16.5886 29.806 16.3931C29.2002 16.0726 28.3887 15.8468 27.4895 15.847L22.5397 15.8483C22.1987 15.8484 21.8812 15.6747 21.6973 15.3876L17.1765 8.32793C17.1726 8.32229 17.169 8.31733 17.1656 8.31299C17.1516 8.31715 17.1376 8.321 17.1234 8.32454L16.6563 8.44146C16.6251 8.45969 16.6079 8.47558 16.5996 8.48459L17.8623 14.6491C17.9156 14.9097 17.863 15.1808 17.716 15.4025C17.569 15.6241 17.3398 15.7781 17.079 15.8303L13.5436 16.5384C13.2158 16.604 12.8768 16.5015 12.6403 16.2651L11.0862 14.7119L11.4997 16.7764C11.5257 16.9059 11.5257 17.0392 11.4998 17.1686L11.0874 19.2334L12.6407 17.6793C12.8771 17.4429 13.216 17.3401 13.5439 17.4056L17.0796 18.1118C17.3404 18.1639 17.5697 18.3177 17.7168 18.5393C17.8639 18.7609 17.9167 19.032 17.8635 19.2926L16.6041 25.4578C16.6162 25.471 16.6474 25.4989 16.7136 25.5272L17.0603 25.6757C17.1045 25.6747 17.1258 25.6673 17.1309 25.6653C17.1353 25.6636 17.1387 25.6618 17.1439 25.6575C17.1492 25.6531 17.1625 25.6411 17.1811 25.6142Z" fill="white"/>
</g>
<defs>
<clipPath id="clip0_14_1275">
<rect width="24" height="24" fill="white" transform="translate(19) rotate(44.9849)"/>
</clipPath>
</defs>
</svg>

